# xmcd CD database file
#
# Track frame offsets:
#	150
#	7050
#	32370
#	59482
#	100387
#	118460
#	142460
#	161602
#	176515
#	201032
#	232190
#	247660
#	272565
#	288351
#	338469
#
# Disc length: 4640 seconds
#
# Revision: 0
# Processed by: cddbd v1.5.2PL0 Copyright (c) Steve Scherf et al.
# Submitted via: CDex 1.70beta2
#
DISCID=db121e0f
DTITLE=Michael Bloomfield and Al Kooper - Live Adventures Of Michael Bloomfield and Al Kooper
DYEAR=1968
DGENRE=Blues
TTITLE0=Opening Speech_Michael Bloomfield 
TTITLE1=The 59th Street Bridge Song (Feelin' Groovy) 
TTITLE2=I Wonder Who
TTITLE3=Her Holy Modal Highness
TTITLE4=The Weight
TTITLE5=Mary Ann
TTITLE6=Together 'Til The End Of Time
TTITLE7=That's All Right
TTITLE8=Green Onions
TTITLE9=Albert's Shuffle
TTITLE10=Man's Temptation
TTITLE11=Really
TTITLE12=It Takes A Lot To Laugh, It Takes A Train To Cry
TTITLE13=Season Of The Witch
TTITLE14=Harvey's Tune
EXTD=YEAR: 1968
EXTT0=
EXTT1=
EXTT2=
EXTT3=
EXTT4=
EXTT5=
EXTT6=
EXTT7=
EXTT8=
EXTT9=
EXTT10=
EXTT11=
EXTT12=
EXTT13=
EXTT14=
PLAYORDER=
